<?xml version="1.0" standalone="no"?>
<!DOCTYPE svg PUBLIC "-//W3C//DTD SVG 20010904//EN"
 "http://www.w3.org/TR/2001/REC-SVG-20010904/DTD/svg10.dtd">
<svg version="1.0" xmlns="http://www.w3.org/2000/svg"
 width="2000.000000pt" height="2000.000000pt" viewBox="0 0 2000.000000 2000.000000"
 preserveAspectRatio="xMidYMid meet">

<g transform="translate(0.000000,2000.000000) scale(0.100000,-0.100000)"
fill="#000000" stroke="none">
<path d="M8560 18496 c-106 -30 -187 -96 -233 -190 -78 -158 -208 -906 -322
-1846 -20 -162 -38 -305 -40 -317 -4 -17 -22 -27 -87 -49 -241 -79 -487 -180
-747 -305 l-184 -89 -82 62 c-44 35 -396 308 -782 608 -460 357 -728 559 -777
584 -64 33 -87 40 -153 44 -96 5 -151 -14 -278 -93 -215 -135 -469 -359 -936
-825 -651 -649 -996 -1049 -1055 -1223 -24 -69 -24 -159 0 -222 25 -67 59
-115 191 -275 322 -390 859 -1084 1056 -1365 l35 -50 -106 -216 c-115 -233
-206 -453 -281 -674 l-47 -140 -343 -52 c-626 -93 -762 -114 -989 -148 -124
-19 -346 -53 -495 -75 -194 -29 -284 -47 -320 -64 -69 -31 -139 -106 -183
-195 l-37 -75 -3 -1325 c-3 -1449 -5 -1376 54 -1477 33 -56 115 -131 169 -155
47 -21 124 -33 1360 -214 396 -58 733 -108 748 -113 26 -7 32 -20 98 -215 80
-240 182 -483 303 -725 l85 -170 -157 -208 c-87 -115 -288 -375 -447 -579
-551 -702 -606 -779 -636 -877 -32 -104 -24 -212 24 -311 118 -246 793 -950
1749 -1824 227 -208 259 -227 398 -231 80 -3 105 0 158 20 64 24 52 15 1369
1016 l333 252 80 -40 c200 -101 517 -232 790 -328 l135 -47 161 -1063 c143
-938 165 -1069 188 -1116 29 -59 78 -109 150 -151 97 -57 39 -55 1462 -55
1290 0 1313 0 1378 20 112 35 189 112 235 233 69 185 192 922 301 1797 23 184
43 335 44 336 0 0 57 20 126 44 244 84 593 231 820 345 l69 35 768 -603 c867
-679 879 -687 1026 -695 66 -3 92 0 134 17 233 92 626 434 1343 1168 369 377
708 773 773 903 29 59 32 73 32 160 0 85 -3 102 -31 160 -17 36 -64 106 -104
155 -507 625 -1024 1292 -1144 1476 -17 26 -16 28 68 200 97 201 221 495 291
689 26 74 53 140 59 146 6 7 90 24 186 38 96 14 564 84 1040 156 804 121 869
133 927 161 101 49 186 164 212 287 16 75 16 2569 0 2644 -26 122 -113 238
-212 283 -56 26 -76 30 -1062 180 -308 47 -676 104 -818 125 -142 22 -260 40
-262 40 -2 0 -10 19 -16 43 -54 187 -218 590 -359 881 -44 93 -79 174 -77 180
8 19 311 416 579 757 467 596 608 784 639 856 41 97 46 200 12 306 -33 105
-276 399 -678 821 -296 312 -1166 1144 -1268 1214 -133 92 -329 97 -449 13
-21 -14 -219 -163 -440 -331 -750 -566 -1119 -845 -1157 -872 l-38 -27 -64 32
c-208 104 -513 231 -799 333 -74 26 -136 48 -138 49 -1 1 -74 476 -162 1056
-88 580 -167 1073 -176 1097 -25 68 -104 146 -192 189 l-76 38 -1335 2 c-1049
1 -1346 -1 -1381 -11z m1565 -5707 c596 -40 1121 -242 1575 -605 120 -96 382
-360 478 -482 279 -352 461 -738 546 -1157 43 -215 51 -305 51 -605 0 -300 -8
-390 -51 -605 -85 -418 -267 -806 -544 -1155 -108 -137 -377 -404 -510 -507
-416 -320 -860 -505 -1365 -567 -442 -54 -895 -13 -1293 120 -413 137 -773
365 -1107 699 -466 466 -738 1020 -817 1665 -17 137 -17 563 0 700 103 842
559 1568 1290 2055 500 333 1110 488 1747 444z"/>
</g>
</svg>
